<svg viewBox="-400 -400 800 800" xmlns="http://www.w3.org/2000/svg">
  <g fill="#000000" stroke="#000000" stroke-width="8" stroke-linejoin="round" stroke-linecap="round">
    <!-- Structural Shell C -->
    <polygon points="0,-390 338,-195 225,-130 0,-260 -225,-130 -225,130 0,260 225,130 338,195 0,390 -338,195 -338,-195"/>
    <!-- Inner Arrow V -->
    <polygon points="-225,-130 0,260 225,-130 80,-130 145,-92 0,130 -145,-92 -80,-130"/>
    <!-- Axis Stem Y (Monolithic Convert) -->
    <polygon points="-12,-12 12,-12 12,130 -12,130"/>
    <!-- Axis Left Y (Monolithic Convert) -->
    <polygon points="6.4,-10.1 -6.4,10.1 -151.4,-81.9 -138.6,-102.1"/>
    <!-- Axis Right Y (Monolithic Convert) -->
    <polygon points="-6.4,-10.1 6.4,10.1 151.4,-81.9 138.6,-102.1"/>
  </g>
</svg>
