<svg viewBox="300 200 950 1150" xmlns="http://www.w3.org/2000/svg">
  <title>Vectorify Silhouette (Boolean Union Outline)</title>
  <!-- Delineado puro al margen exacto. Extraído del Blueprint Auto-trazado original -->
  <path fill="currentColor" d="
    M 774.375 226.308 C 771.796 227.707 768.421 229.625 766.875 230.578
    C 761.585 233.824 748.015 241.781 706.875 265.757 C 699.828 269.863 690.125 275.562 685.312 278.421 C 676.269 283.796 662.097 292.121 655 296.234 C 650.66 298.746 639.695 305.191 625 313.863 C 618.335 317.792 611.671 321.714 605 325.632 C 593.003 332.675 584.113 337.921 565.625 348.867 C 558.921 352.832 544.156 361.5 532.812 368.121 C 521.468 374.746 510.218 381.351 507.812 382.800 C 505.406 384.25 499.218 387.914 494.062 390.941 C 488.906 393.968 480.75 398.796 475.937 401.671 C 471.125 404.546 466.203 407.480 465 408.191 C 457.164 412.804 439.917 423.015 426.562 430.941 C 417.968 436.042 407 442.546 402.187 445.394 C 397.375 448.242 391.75 451.578 389.687 452.808 C 387.625 454.035 377.921 459.812 368.125 465.636 C 358.328 471.464 349.468 476.753 348.437 477.390 C 347.406 478.031 342.343 481.023 337.187 484.046 C 332.031 487.066 324.296 491.707 320 494.355 L 312.187 499.171 L 311.765 524.742 C 311.312 552.066 309.968 903.089 309.988 988.242 C 309.996 1017.75 310.242 1039.929 310.574 1040.804 C 311.144 1042.300 315.406 1044.988 342.187 1060.738 C 344.25 1061.949 355.359 1068.566 366.875 1075.441 C 378.390 1082.316 391.468 1090.054 395.937 1092.636 C 400.406 1095.222 412.308 1102.296 422.390 1108.363 C 432.472 1114.425 441.972 1120.085 443.5 1120.941 C 446.726 1122.742 465.093 1133.601 469.687 1136.425 C 471.406 1137.480 483.781 1144.863 497.187 1152.824 C 510.593 1160.789 524.234 1168.933 527.5 1170.921 C 530.765 1172.910 537.093 1176.652 541.562 1179.230 C 549.558 1183.851 573.941 1198.335 631.25 1232.511 C 647.699 1242.320 664.156 1252.113 680.625 1261.886 C 704.734 1276.183 751.230 1303.972 765.320 1312.503 C 778.953 1320.757 779.082 1320.820 780.785 1319.933 C 782.937 1318.816 826.917 1292.851 834.687 1288.113 C 838.468 1285.804 846.484 1281.019 852.5 1277.472 C 858.515 1273.929 866.531 1269.156 870.312 1266.867 C 874.093 1264.574 887.593 1256.562 900.312 1249.062 C 915.753 1239.941 931.171 1230.777 946.562 1221.566 C 972.089 1206.273 1006.238 1185.953 1015.937 1180.281 C 1019.375 1178.273 1026.265 1174.195 1031.25 1171.226 C 1036.234 1168.253 1043.687 1163.847 1047.812 1161.425 C 1061.894 1153.160 1075.957 1144.863 1090 1136.531 C 1095.328 1133.367 1104.187 1128.117 1109.687 1124.867 C 1115.187 1121.613 1128.406 1113.761 1139.062 1107.414 C 1149.718 1101.062 1161.812 1093.886 1165.937 1091.460 C 1180.335 1082.992 1214 1063.089 1232.187 1052.289 C 1239.75 1047.800 1246.460 1043.652 1247.097 1043.070 C 1248.210 1042.062 1247.902 1041.781 1239.910 1036.535 C 1235.320 1033.523 1225.656 1027.542 1218.437 1023.246 C 1211.218 1018.953 1188.015 1005.101 1166.875 992.468 C 1145.734 979.832 1127.414 969.007 1126.164 968.414 L 1123.886 967.335 L 1113.976 973.277 C 1108.523 976.546 1090.703 987.085 1074.375 996.695 C 1029.726 1022.968 1001.683 1039.511 967.812 1059.566 C 950.968 1069.539 935.640 1078.589 933.75 1079.675 C 931.859 1080.765 925.812 1084.335 920.312 1087.613 C 914.812 1090.886 905.109 1096.613 898.75 1100.332 C 884.605 1108.601 862.183 1121.812 816.562 1148.75 C 788.554 1165.285 786.25 1166.562 786.253 1165.523 C 786.257 1165.062 787.554 1162.437 789.140 1159.687 C 792.148 1154.472 804.074 1133.371 815.820 1112.5 C 819.589 1105.796 825.015 1096.031 827.875 1090.800 C 830.738 1085.570 834.878 1078.117 837.078 1074.238 C 845.277 1059.777 858.734 1035.621 874.082 1007.812 C 876.546 1003.343 881.878 993.781 885.929 986.562 C 889.984 979.343 895.542 969.359 898.285 964.375 C 901.027 959.390 906.371 949.828 910.164 943.125 C 913.953 936.421 918.878 927.570 921.105 923.453 C 923.335 919.335 926.777 913.148 928.757 909.703 C 930.738 906.257 935.656 897.390 939.687 890 C 943.722 882.609 948.5 874.031 950.304 870.937 C 952.113 867.843 957.601 858 962.503 849.062 C 967.406 840.125 975.417 825.640 980.304 816.875 C 985.531 807.503 990.75 798.128 995.960 788.75 C 999.683 782.046 1003.832 774.593 1005.183 772.187 C 1006.531 769.781 1009.109 765.140 1010.914 761.875 C 1014.476 755.425 1043.132 703.910 1050.207 691.25 C 1053.683 685.007 1057.152 678.757 1060.605 672.5 C 1063.929 666.484 1070.308 654.953 1074.785 646.875 C 1079.968 637.507 1085.140 628.132 1090.292 618.75 C 1097.796 605.078 1107.363 587.843 1113.707 576.562 L 1117.222 570.312 L 1124.707 566.015 C 1128.820 563.652 1136.546 559.406 1141.875 556.578 C 1147.203 553.75 1157.046 548.402 1163.75 544.691 C 1172.277 539.980 1180.820 535.292 1189.375 530.628 C 1205.191 522.019 1211.503 518.531 1226.25 510.269 C 1232.265 506.898 1239.226 503.050 1241.718 501.718 C 1244.210 500.386 1246.25 499.078 1246.25 498.808 C 1246.25 497.671 1243.261 495.777 1220 482.164 C 1162.984 448.789 1134.816 432.210 1132.5 430.656 C 1131.640 430.082 1129.25 428.667 1127.187 427.519 C 1125.125 426.371 1117.671 422.007 1110.625 417.824 C 1097.558 410.070 1082.058 400.906 1062.5 389.378 C 1056.484 385.832 1048.468 381.097 1044.687 378.855 C 1040.906 376.613 1032.046 371.421 1025 367.320 C 1017.953 363.218 1005.437 355.843 997.187 350.933 C 988.937 346.027 973.328 336.832 962.5 330.503 C 950.609 323.550 938.734 316.578 926.875 309.585 C 893.765 290.035 867.320 274.492 853.125 266.238 C 845.097 261.574 837.074 256.890 829.062 252.199 C 788.933 228.660 780.257 223.707 779.238 223.757 C 779.140 223.761 776.953 224.910 774.375 226.308 M 767.785 375.511 C 749.160 386.199 743.484 389.488 742.812 390 C 742.468 390.261 733.609 395.386 723.125 401.386 C 706.800 410.734 677.562 427.582 663.75 435.601 C 658.847 438.460 653.953 441.328 649.062 444.210 C 638.457 450.449 621.722 460.117 602.812 470.933 C 586.445 480.292 553.562 499.339 532.187 511.839 C 521.187 518.269 505.859 527.148 498.125 531.566 C 463.019 551.613 457.515 554.882 457.503 555.699 C 457.5 556.175 464.226 556.675 481.875 557.519 C 489.265 557.871 502.484 558.570 511.25 559.078 C 558.902 561.824 592.722 563.796 601.875 564.359 C 607.546 564.707 620.203 565.417 630 565.945 C 649.035 566.960 650.625 567.136 650.625 568.226 C 650.625 568.878 640.582 583.429 632.535 594.433 C 621.902 608.972 608.804 628.269 608.761 629.449 C 608.757 629.664 611.070 631.332 613.906 633.156 C 620.812 637.605 656.316 661.101 684.062 679.582 C 721.929 704.808 778.214 741.949 779.085 742.281 C 779.988 742.628 789.660 736.394 840.937 702.386 C 897.027 665.187 938.050 638.042 944.207 634.054 C 948.539 631.246 949.984 629.976 949.988 628.957 C 950 627.699 938.269 610.726 927.816 596.875 C 920.390 587.031 908.125 569.300 908.125 568.410 C 908.125 567.167 908.878 567.101 943.125 565.308 C 946.390 565.136 953.984 564.714 960 564.371 C 971.523 563.714 997.394 562.253 1042.5 559.710 C 1057.453 558.867 1076.789 557.828 1085.468 557.406 C 1094.148 556.984 1101.25 556.449 1101.25 556.214 C 1101.25 555.980 1097.242 553.398 1092.343 550.476 C 1078.484 542.207 1055.519 528.730 1046.562 523.609 C 1042.093 521.054 1031.265 514.726 1022.5 509.550 C 1005.078 499.261 975.5 482.082 952.5 468.898 C 944.421 464.265 935.281 459 932.187 457.199 C 909.988 444.265 878.921 426.132 868.437 419.992 C 861.562 415.964 850.875 409.777 844.687 406.242 C 834.589 400.472 810.734 386.578 789.375 374.027 C 785.078 371.503 781.128 369.273 780.597 369.078 C 780.023 368.863 774.820 371.476 767.785 375.511 M 438.523 585.753 C 438.324 592.730 438.011 643.718 437.828 699.062 C 437.648 754.406 437.312 837.378 437.082 883.441 L 436.671 967.199 L 452.867 976.824 C 461.773 982.117 471.734 988.003 475 989.902 C 478.265 991.800 489.515 998.464 500 1004.710 C 525.226 1019.742 554.441 1037.097 597.812 1062.812 C 617.406 1074.429 642.296 1089.199 653.125 1095.632 C 663.953 1102.070 686.453 1115.433 703.125 1125.328 C 719.796 1135.226 742.296 1148.617 753.125 1155.082 C 763.953 1161.550 772.906 1166.570 773.019 1166.238 C 773.132 1165.906 772.410 1164.156 771.414 1162.347 C 762.730 1146.605 745.796 1116.273 737.828 1102.187 C 734.328 1096 729.261 1087 726.574 1082.187 C 721.031 1072.277 711.089 1054.675 703.449 1041.25 C 699.558 1034.386 695.687 1027.511 691.843 1020.625 C 688.296 1014.265 681.414 1002.031 676.550 993.437 C 671.687 984.843 666.074 974.859 664.074 971.25 C 662.074 967.640 655.742 956.390 650 946.25 C 637.253 923.734 620.820 894.492 615.929 885.625 C 613.941 882.015 610.839 876.531 609.039 873.437 C 607.238 870.343 601.757 860.640 596.855 851.875 C 591.253 841.863 585.625 831.863 579.976 821.875 C 573.554 810.531 567.156 799.175 560.773 787.812 C 554.597 776.812 542.710 755.718 534.363 740.937 C 526.015 726.156 513.714 704.359 507.031 692.5 C 500.347 680.640 493.398 668.406 491.589 665.312 C 487.980 659.144 475.230 636.246 468.269 623.437 C 465.843 618.968 460.246 608.914 455.835 601.089 C 451.906 594.125 447.980 587.160 444.062 580.191 C 442 576.515 439.992 573.410 439.601 573.289 C 439.093 573.128 438.785 576.699 438.523 585.753 M 605 655.011 C 605 655.437 608.191 661.726 612.089 668.988 C 615.988 676.246 620.812 685.281 622.804 689.062 C 624.796 692.843 628.742 700.156 631.574 705.312 C 634.402 710.468 640.562 721.953 645.261 730.835 C 650.847 741.375 656.468 751.894 662.128 762.398 C 667.699 772.726 673.234 783.074 678.742 793.437 C 683.304 802.031 689.355 813.281 692.191 818.437 C 695.027 823.593 699.949 832.734 703.128 838.75 C 706.304 844.765 715.015 860.937 722.484 874.687 C 729.949 888.437 738.878 905.031 742.324 911.562 C 754.816 935.242 765.710 955.328 766.496 956.125 C 767.144 956.785 767.371 952.464 767.710 933 C 768.246 901.945 768.246 783.027 767.710 770.636 L 767.296 761.074 L 749.429 749.308 C 739.601 742.839 717.781 728.421 700.937 717.265 C 684.281 706.238 667.613 695.222 650.937 684.222 C 640.281 677.203 625.945 667.722 619.082 663.156 C 605.636 654.214 605 653.843 605 655.011 M 911.226 681.765 C 869.898 709.304 806.820 751.167 796.718 757.761 L 791.25 761.328 L 791.257 858.320 C 791.265 911.667 791.503 955.679 791.789 956.128 C 792.140 956.683 794.035 953.851 797.714 947.273 C 800.691 941.953 803.125 937.421 803.125 937.207 C 803.125 936.992 805.613 932.257 808.656 926.687 C 811.695 921.121 815.031 914.875 816.066 912.812 C 817.835 909.289 826.5 893.089 835.296 876.875 C 841.460 865.507 848.210 852.875 852.832 844.062 C 855.175 839.593 859.753 831.015 863.003 825 C 866.253 818.984 874.179 804.218 880.617 792.187 C 887.054 780.156 896.253 763 901.058 754.062 C 905.867 745.125 911.718 734.156 914.062 729.687 C 916.410 725.218 921.757 715.234 925.953 707.5 C 933.570 693.453 946.285 669.277 951.175 659.531 C 952.738 656.417 953.453 654.394 952.976 654.421 C 952.542 654.445 933.753 666.75 911.226 681.765" />
</svg>
