<svg viewBox="-1000 -1000 2000 2500" xmlns="http://www.w3.org/2000/svg" style="background:#030508">
  <defs>
    <linearGradient id="neonG" x1="0%" y1="0%" x2="0%" y2="100%">
      <stop offset="0%" stop-color="#00FFCC" />
      <stop offset="100%" stop-color="#0055FF" />
    </linearGradient>
  </defs>
  <style>
    @import url('https://fonts.googleapis.com/css2?family=Outfit:wght@800&amp;display=swap');
    .text-vert { font-family: 'Outfit', sans-serif; font-size: 260px; font-weight: 800; fill: #ffffff; letter-spacing: 5px; text-anchor: middle;}
    .tagline { font-family: 'Outfit', sans-serif; font-size: 70px; font-weight: 400; fill: #8892B0; letter-spacing: 20px; text-anchor: middle;}
  </style>

  <!-- ICON -->
  <g fill="url(#neonG)" stroke="url(#neonG)" stroke-linejoin="round" stroke-linecap="round" transform="translate(0, -300) scale(1.2)">
      <polygon points="0,-390 338,-195 225,-130 0,-260 -225,-130 -225,130 0,260 225,130 338,195 0,390 -338,195 -338,-195" stroke-width="8"/>
      <polygon points="-225,-130 0,260 225,-130 80,-130 145,-92 0,130 -145,-92 -80,-130" stroke-width="8"/>
      <g stroke-width="24" fill="none"><line x1="0" y1="0" x2="0" y2="130"/><line x1="0" y1="0" x2="-145" y2="-92"/><line x1="0" y1="0" x2="145" y2="-92"/></g>
  </g>

  <!-- TEXT BLOCK -->
  <text x="0" y="600" class="text-vert">CONVECTORIFY</text>
  <text x="0" y="750" class="tagline">PROJECT DEVELOPMENT ENVIRONMENT</text>
</svg>
