<svg xmlns="http://www.w3.org/2000/svg" xmlns:xlink="http://www.w3.org/1999/xlink" width="2000" zoomAndPan="magnify" viewBox="0 0 1500 1499.999933" height="2000" preserveAspectRatio="xMidYMid meet" version="1.0"><path fill="#afc1d0" d="M 774.375 226.308594 C 771.796875 227.707031 768.421875 229.625 766.875 230.578125 C 761.585938 233.824219 748.015625 241.78125 706.875 265.757812 C 699.828125 269.863281 690.125 275.5625 685.3125 278.421875 C 676.269531 283.796875 662.097656 292.121094 655 296.234375 C 650.660156 298.746094 639.695312 305.191406 625 313.863281 C 618.335938 317.792969 611.671875 321.714844 605 325.632812 C 593.003906 332.675781 584.113281 337.921875 565.625 348.867188 C 558.921875 352.832031 544.15625 361.5 532.8125 368.121094 C 521.46875 374.746094 510.21875 381.351562 507.8125 382.800781 C 505.40625 384.25 499.21875 387.914062 494.0625 390.941406 C 488.90625 393.96875 480.75 398.796875 475.9375 401.671875 C 471.125 404.546875 466.203125 407.480469 465 408.191406 C 457.164062 412.804688 439.917969 423.015625 426.5625 430.941406 C 417.96875 436.042969 407 442.546875 402.1875 445.394531 C 397.375 448.242188 391.75 451.578125 389.6875 452.808594 C 387.625 454.035156 377.921875 459.8125 368.125 465.636719 C 358.328125 471.464844 349.46875 476.753906 348.4375 477.390625 C 347.40625 478.03125 342.34375 481.023438 337.1875 484.046875 C 332.03125 487.066406 324.296875 491.707031 320 494.355469 L 312.1875 499.171875 L 311.765625 524.742188 C 311.3125 552.066406 309.96875 903.089844 309.988281 988.242188 C 309.996094 1017.75 310.242188 1039.929688 310.574219 1040.804688 C 311.144531 1042.300781 315.40625 1044.988281 342.1875 1060.738281 C 344.25 1061.949219 355.359375 1068.566406 366.875 1075.441406 C 378.390625 1082.316406 391.46875 1090.054688 395.9375 1092.636719 C 400.40625 1095.222656 412.308594 1102.296875 422.390625 1108.363281 C 432.472656 1114.425781 441.972656 1120.085938 443.5 1120.941406 C 446.726562 1122.742188 465.09375 1133.601562 469.6875 1136.425781 C 471.40625 1137.480469 483.78125 1144.863281 497.1875 1152.824219 C 510.59375 1160.789062 524.234375 1168.933594 527.5 1170.921875 C 530.765625 1172.910156 537.09375 1176.652344 541.5625 1179.230469 C 549.558594 1183.851562 573.941406 1198.335938 631.25 1232.511719 C 647.699219 1242.320312 664.15625 1252.113281 680.625 1261.886719 C 704.734375 1276.183594 751.230469 1303.972656 765.320312 1312.503906 C 778.953125 1320.757812 779.082031 1320.820312 780.785156 1319.933594 C 782.9375 1318.816406 826.917969 1292.851562 834.6875 1288.113281 C 838.46875 1285.804688 846.484375 1281.019531 852.5 1277.472656 C 858.515625 1273.929688 866.53125 1269.15625 870.3125 1266.867188 C 874.09375 1264.574219 887.59375 1256.5625 900.3125 1249.0625 C 915.753906 1239.941406 931.171875 1230.777344 946.5625 1221.566406 C 972.089844 1206.273438 1006.238281 1185.953125 1015.9375 1180.28125 C 1019.375 1178.273438 1026.265625 1174.195312 1031.25 1171.226562 C 1036.234375 1168.253906 1043.6875 1163.847656 1047.8125 1161.425781 C 1061.894531 1153.160156 1075.957031 1144.863281 1090 1136.53125 C 1095.328125 1133.367188 1104.1875 1128.117188 1109.6875 1124.867188 C 1115.1875 1121.613281 1128.40625 1113.761719 1139.0625 1107.414062 C 1149.71875 1101.0625 1161.8125 1093.886719 1165.9375 1091.460938 C 1180.335938 1082.992188 1214 1063.089844 1232.1875 1052.289062 C 1239.75 1047.800781 1246.460938 1043.652344 1247.097656 1043.070312 C 1248.210938 1042.0625 1247.902344 1041.78125 1239.910156 1036.535156 C 1235.320312 1033.523438 1225.65625 1027.542969 1218.4375 1023.246094 C 1211.21875 1018.953125 1188.015625 1005.101562 1166.875 992.46875 C 1145.734375 979.832031 1127.414062 969.007812 1126.164062 968.414062 L 1123.886719 967.335938 L 1113.976562 973.277344 C 1108.523438 976.546875 1090.703125 987.085938 1074.375 996.695312 C 1029.726562 1022.96875 1001.683594 1039.511719 967.8125 1059.566406 C 950.96875 1069.539062 935.640625 1078.589844 933.75 1079.675781 C 931.859375 1080.765625 925.8125 1084.335938 920.3125 1087.613281 C 914.8125 1090.886719 905.109375 1096.613281 898.75 1100.332031 C 884.605469 1108.601562 862.183594 1121.8125 816.5625 1148.75 C 788.554688 1165.285156 786.25 1166.5625 786.253906 1165.523438 C 786.257812 1165.0625 787.554688 1162.4375 789.140625 1159.6875 C 792.148438 1154.472656 804.074219 1133.371094 815.820312 1112.5 C 819.589844 1105.796875 825.015625 1096.03125 827.875 1090.800781 C 830.738281 1085.570312 834.878906 1078.117188 837.078125 1074.238281 C 845.277344 1059.777344 858.734375 1035.621094 874.082031 1007.8125 C 876.546875 1003.34375 881.878906 993.78125 885.929688 986.5625 C 889.984375 979.34375 895.542969 969.359375 898.285156 964.375 C 901.027344 959.390625 906.371094 949.828125 910.164062 943.125 C 913.953125 936.421875 918.878906 927.570312 921.105469 923.453125 C 923.335938 919.335938 926.777344 913.148438 928.757812 909.703125 C 930.738281 906.257812 935.65625 897.390625 939.6875 890 C 943.722656 882.609375 948.5 874.03125 950.304688 870.9375 C 952.113281 867.84375 957.601562 858 962.503906 849.0625 C 967.40625 840.125 975.417969 825.640625 980.304688 816.875 C 985.53125 807.503906 990.75 798.128906 995.960938 788.75 C 999.683594 782.046875 1003.832031 774.59375 1005.183594 772.1875 C 1006.53125 769.78125 1009.109375 765.140625 1010.914062 761.875 C 1014.476562 755.425781 1043.132812 703.910156 1050.207031 691.25 C 1053.683594 685.007812 1057.152344 678.757812 1060.605469 672.5 C 1063.929688 666.484375 1070.308594 654.953125 1074.785156 646.875 C 1079.96875 637.507812 1085.140625 628.132812 1090.292969 618.75 C 1097.796875 605.078125 1107.363281 587.84375 1113.707031 576.5625 L 1117.222656 570.3125 L 1124.707031 566.015625 C 1128.820312 563.652344 1136.546875 559.40625 1141.875 556.578125 C 1147.203125 553.75 1157.046875 548.402344 1163.75 544.691406 C 1172.277344 539.980469 1180.820312 535.292969 1189.375 530.628906 C 1205.191406 522.019531 1211.503906 518.53125 1226.25 510.269531 C 1232.265625 506.898438 1239.226562 503.050781 1241.71875 501.71875 C 1244.210938 500.386719 1246.25 499.078125 1246.25 498.808594 C 1246.25 497.671875 1243.261719 495.777344 1220 482.164062 C 1162.984375 448.789062 1134.816406 432.210938 1132.5 430.65625 C 1131.640625 430.082031 1129.25 428.667969 1127.1875 427.519531 C 1125.125 426.371094 1117.671875 422.007812 1110.625 417.824219 C 1097.558594 410.070312 1082.058594 400.90625 1062.5 389.378906 C 1056.484375 385.832031 1048.46875 381.097656 1044.6875 378.855469 C 1040.90625 376.613281 1032.046875 371.421875 1025 367.320312 C 1017.953125 363.21875 1005.4375 355.84375 997.1875 350.933594 C 988.9375 346.027344 973.328125 336.832031 962.5 330.503906 C 950.609375 323.550781 938.734375 316.578125 926.875 309.585938 C 893.765625 290.035156 867.320312 274.492188 853.125 266.238281 C 845.097656 261.574219 837.074219 256.890625 829.0625 252.199219 C 788.933594 228.660156 780.257812 223.707031 779.238281 223.757812 C 779.140625 223.761719 776.953125 224.910156 774.375 226.308594 M 767.785156 375.511719 C 749.160156 386.199219 743.484375 389.488281 742.8125 390 C 742.46875 390.261719 733.609375 395.386719 723.125 401.386719 C 706.800781 410.734375 677.5625 427.582031 663.75 435.601562 C 658.847656 438.460938 653.953125 441.328125 649.0625 444.210938 C 638.457031 450.449219 621.722656 460.117188 602.8125 470.933594 C 586.445312 480.292969 553.5625 499.339844 532.1875 511.839844 C 521.1875 518.269531 505.859375 527.148438 498.125 531.566406 C 463.019531 551.613281 457.515625 554.882812 457.503906 555.699219 C 457.5 556.175781 464.226562 556.675781 481.875 557.519531 C 489.265625 557.871094 502.484375 558.570312 511.25 559.078125 C 558.902344 561.824219 592.722656 563.796875 601.875 564.359375 C 607.546875 564.707031 620.203125 565.417969 630 565.945312 C 649.035156 566.960938 650.625 567.136719 650.625 568.226562 C 650.625 568.878906 640.582031 583.429688 632.535156 594.433594 C 621.902344 608.972656 608.804688 628.269531 608.761719 629.449219 C 608.757812 629.664062 611.070312 631.332031 613.90625 633.15625 C 620.8125 637.605469 656.316406 661.101562 684.0625 679.582031 C 721.929688 704.808594 778.214844 741.949219 779.085938 742.28125 C 779.988281 742.628906 789.660156 736.394531 840.9375 702.386719 C 897.027344 665.1875 938.050781 638.042969 944.207031 634.054688 C 948.539062 631.246094 949.984375 629.976562 949.988281 628.957031 C 950 627.699219 938.269531 610.726562 927.816406 596.875 C 920.390625 587.03125 908.125 569.300781 908.125 568.410156 C 908.125 567.167969 908.878906 567.101562 943.125 565.308594 C 946.390625 565.136719 953.984375 564.714844 960 564.371094 C 971.523438 563.714844 997.394531 562.253906 1042.5 559.710938 C 1057.453125 558.867188 1076.789062 557.828125 1085.46875 557.40625 C 1094.148438 556.984375 1101.25 556.449219 1101.25 556.214844 C 1101.25 555.980469 1097.242188 553.398438 1092.34375 550.476562 C 1078.484375 542.207031 1055.519531 528.730469 1046.5625 523.609375 C 1042.09375 521.054688 1031.265625 514.726562 1022.5 509.550781 C 1005.078125 499.261719 975.5 482.082031 952.5 468.898438 C 944.421875 464.265625 935.28125 459 932.1875 457.199219 C 909.988281 444.265625 878.921875 426.132812 868.4375 419.992188 C 861.5625 415.964844 850.875 409.777344 844.6875 406.242188 C 834.589844 400.472656 810.734375 386.578125 789.375 374.027344 C 785.078125 371.503906 781.128906 369.273438 780.597656 369.078125 C 780.023438 368.863281 774.820312 371.476562 767.785156 375.511719 M 438.523438 585.753906 C 438.324219 592.730469 438.011719 643.71875 437.828125 699.0625 C 437.648438 754.40625 437.3125 837.378906 437.082031 883.441406 L 436.671875 967.199219 L 452.867188 976.824219 C 461.773438 982.117188 471.734375 988.003906 475 989.902344 C 478.265625 991.800781 489.515625 998.464844 500 1004.710938 C 525.226562 1019.742188 554.441406 1037.097656 597.8125 1062.8125 C 617.40625 1074.429688 642.296875 1089.199219 653.125 1095.632812 C 663.953125 1102.070312 686.453125 1115.433594 703.125 1125.328125 C 719.796875 1135.226562 742.296875 1148.617188 753.125 1155.082031 C 763.953125 1161.550781 772.90625 1166.570312 773.019531 1166.238281 C 773.132812 1165.90625 772.410156 1164.15625 771.414062 1162.347656 C 762.730469 1146.605469 745.796875 1116.273438 737.828125 1102.1875 C 734.328125 1096 729.261719 1087 726.574219 1082.1875 C 721.03125 1072.277344 711.089844 1054.675781 703.449219 1041.25 C 699.558594 1034.386719 695.6875 1027.511719 691.84375 1020.625 C 688.296875 1014.265625 681.414062 1002.03125 676.550781 993.4375 C 671.6875 984.84375 666.074219 974.859375 664.074219 971.25 C 662.074219 967.640625 655.742188 956.390625 650 946.25 C 637.253906 923.734375 620.820312 894.492188 615.929688 885.625 C 613.941406 882.015625 610.839844 876.53125 609.039062 873.4375 C 607.238281 870.34375 601.757812 860.640625 596.855469 851.875 C 591.253906 841.863281 585.625 831.863281 579.976562 821.875 C 573.554688 810.53125 567.15625 799.175781 560.773438 787.8125 C 554.597656 776.8125 542.710938 755.71875 534.363281 740.9375 C 526.015625 726.15625 513.714844 704.359375 507.03125 692.5 C 500.347656 680.640625 493.398438 668.40625 491.589844 665.3125 C 487.980469 659.144531 475.230469 636.246094 468.269531 623.4375 C 465.84375 618.96875 460.246094 608.914062 455.835938 601.089844 C 451.90625 594.125 447.980469 587.160156 444.0625 580.191406 C 442 576.515625 439.992188 573.410156 439.601562 573.289062 C 439.09375 573.128906 438.785156 576.699219 438.523438 585.753906 M 605 655.011719 C 605 655.4375 608.191406 661.726562 612.089844 668.988281 C 615.988281 676.246094 620.8125 685.28125 622.804688 689.0625 C 624.796875 692.84375 628.742188 700.15625 631.574219 705.3125 C 634.402344 710.46875 640.5625 721.953125 645.261719 730.835938 C 650.847656 741.375 656.46875 751.894531 662.128906 762.398438 C 667.699219 772.726562 673.234375 783.074219 678.742188 793.4375 C 683.304688 802.03125 689.355469 813.28125 692.191406 818.4375 C 695.027344 823.59375 699.949219 832.734375 703.128906 838.75 C 706.304688 844.765625 715.015625 860.9375 722.484375 874.6875 C 729.949219 888.4375 738.878906 905.03125 742.324219 911.5625 C 754.816406 935.242188 765.710938 955.328125 766.496094 956.125 C 767.144531 956.785156 767.371094 952.464844 767.710938 933 C 768.246094 901.945312 768.246094 783.027344 767.710938 770.636719 L 767.296875 761.074219 L 749.429688 749.308594 C 739.601562 742.839844 717.78125 728.421875 700.9375 717.265625 C 684.28125 706.238281 667.613281 695.222656 650.9375 684.222656 C 640.28125 677.203125 625.945312 667.722656 619.082031 663.15625 C 605.636719 654.214844 605 653.84375 605 655.011719 M 911.226562 681.765625 C 869.898438 709.304688 806.820312 751.167969 796.71875 757.761719 L 791.25 761.328125 L 791.257812 858.320312 C 791.265625 911.667969 791.503906 955.679688 791.789062 956.128906 C 792.140625 956.683594 794.035156 953.851562 797.714844 947.273438 C 800.691406 941.953125 803.125 937.421875 803.125 937.207031 C 803.125 936.992188 805.613281 932.257812 808.65625 926.6875 C 811.695312 921.121094 815.03125 914.875 816.066406 912.8125 C 817.835938 909.289062 826.5 893.089844 835.296875 876.875 C 841.460938 865.507812 848.210938 852.875 852.832031 844.0625 C 855.175781 839.59375 859.753906 831.015625 863.003906 825 C 866.253906 818.984375 874.179688 804.21875 880.617188 792.1875 C 887.054688 780.15625 896.253906 763 901.058594 754.0625 C 905.867188 745.125 911.71875 734.15625 914.0625 729.6875 C 916.410156 725.21875 921.757812 715.234375 925.953125 707.5 C 933.570312 693.453125 946.285156 669.277344 951.175781 659.53125 C 952.738281 656.417969 953.453125 654.394531 952.976562 654.421875 C 952.542969 654.445312 933.753906 666.75 911.226562 681.765625 " fill-opacity="1" fill-rule="evenodd"/></svg>